<?xml version="1.0" standalone="no"?>
<!DOCTYPE svg PUBLIC "-//W3C//DTD SVG 20010904//EN"
 "http://www.w3.org/TR/2001/REC-SVG-20010904/DTD/svg10.dtd">
<svg version="1.0" xmlns="http://www.w3.org/2000/svg"
 width="300.000000pt" height="200.000000pt" viewBox="0 0 300.000000 200.000000"
 preserveAspectRatio="xMidYMid meet">
<metadata>
Created by potrace 1.10, written by Peter Selinger 2001-2011
</metadata>
<g transform="translate(0.000000,200.000000) scale(0.100000,-0.100000)"
fill="#000000" stroke="none">
<path d="M1405 1673 c-16 -8 -51 -36 -76 -62 -25 -25 -57 -54 -72 -64 -20 -13
-27 -26 -27 -51 0 -19 -7 -39 -16 -47 -12 -10 -14 -23 -9 -56 5 -34 2 -48 -13
-68 -12 -14 -18 -34 -15 -45 3 -12 -5 -31 -21 -51 -47 -56 -34 -96 45 -133 53
-25 68 -28 117 -22 64 8 86 21 78 49 -3 12 4 28 21 43 24 22 24 25 15 86 -6
35 -8 76 -5 91 3 17 1 27 -7 27 -7 0 -9 -8 -5 -20 5 -15 3 -18 -9 -14 -25 9
-19 26 21 67 20 21 32 37 26 35 -6 -2 -11 0 -12 5 -3 25 2 29 39 25 22 -2 40
0 40 4 0 5 -15 8 -32 8 l-33 1 35 19 c96 53 102 54 122 30 29 -35 24 -57 -12
-52 -18 3 -30 0 -30 -7 0 -6 14 -11 31 -11 30 0 31 -1 25 -37 -4 -21 -2 -44 3
-52 10 -15 4 -41 -9 -41 -5 0 -6 10 -3 23 2 12 -4 3 -15 -20 -29 -59 -81 -81
-129 -55 -14 8 -23 9 -23 3 0 -6 9 -15 19 -21 11 -5 21 -22 23 -37 2 -20 16
-34 57 -59 52 -30 57 -31 88 -18 18 8 44 14 57 14 16 0 32 9 42 25 14 21 14
30 4 55 -7 16 -10 42 -7 57 3 18 -1 37 -13 53 -10 14 -20 45 -23 70 -12 113
-47 202 -96 243 -25 21 -40 25 -98 25 -42 0 -79 -5 -98 -15z m170 -32 c-3 -5
5 -18 18 -28 13 -10 30 -30 37 -43 13 -25 13 -25 -7 -7 -18 16 -24 16 -60 4
-59 -20 -152 -93 -159 -125 -4 -15 -10 -31 -14 -37 -8 -11 -7 -29 5 -137 6
-49 4 -72 -5 -83 -7 -8 -16 -30 -19 -48 -6 -29 -11 -33 -52 -40 -62 -12 -113
10 -135 57 -16 32 -16 36 0 51 9 9 16 26 16 38 0 13 7 33 16 45 9 13 13 26 10
29 -3 3 -2 11 3 17 5 6 11 27 15 46 4 26 3 30 -3 15 -9 -18 -10 -18 -10 -2 -1
11 8 30 19 44 11 14 20 34 20 43 0 20 111 137 150 157 28 15 164 18 155 4z
m101 -302 c6 -8 14 -34 17 -59 3 -25 9 -53 12 -62 9 -22 -34 -50 -78 -51 -22
-1 -45 8 -65 24 -32 25 -41 49 -19 49 6 1 33 20 60 44 46 42 47 44 48 107 l2
64 6 -51 c3 -28 11 -58 17 -65z"/>
<path d="M921 1639 c-51 -84 -77 -351 -48 -491 9 -40 15 -98 15 -128 0 -30 0
-82 2 -115 2 -57 3 -58 11 -25 5 19 8 73 7 121 -2 75 1 88 20 107 12 12 36 50
54 84 32 62 33 65 33 193 0 110 -4 140 -23 197 -31 88 -45 100 -71 57z m59
-159 c17 -103 7 -206 -26 -270 -46 -88 -66 -47 -60 125 3 93 25 217 43 248 11
18 31 -31 43 -103z"/>
<path d="M1811 1505 l2 -60 7 50 c4 28 3 54 -1 60 -5 5 -8 -16 -8 -50z"/>
<path d="M1890 1526 c30 -7 64 -17 75 -20 12 -5 11 -2 -5 7 -14 8 -48 18 -75
21 l-50 5 55 -13z"/>
<path d="M2010 1481 c14 -11 35 -30 48 -41 12 -11 22 -16 22 -11 0 6 -15 21
-32 34 -43 31 -70 44 -38 18z"/>
<path d="M564 1459 c-9 -15 3 -116 27 -224 11 -49 22 -120 24 -158 6 -105 29
-168 86 -237 42 -50 53 -72 64 -128 10 -46 13 -53 10 -22 -3 25 -9 100 -13
168 -5 67 -11 123 -13 125 -2 1 -21 11 -42 21 -51 26 -78 72 -76 128 1 25 -1
50 -4 55 -4 6 -12 42 -17 79 -23 143 -23 147 -9 142 22 -7 125 -147 158 -213
39 -79 42 -90 47 -155 l4 -55 -29 87 c-33 96 -55 143 -72 153 -6 4 1 -15 14
-42 31 -60 71 -189 63 -202 -3 -5 0 -21 8 -36 8 -15 18 -70 21 -123 7 -86 6
-97 -11 -110 -15 -12 -16 -14 -2 -9 12 4 18 -1 21 -16 2 -12 3 77 2 198 -2
200 -4 225 -25 278 -25 67 -98 178 -165 255 -48 53 -59 60 -71 41z m138 -484
c6 6 28 -50 28 -71 0 -7 -8 -11 -17 -10 -19 3 -37 33 -49 81 -7 29 -7 30 13
12 11 -9 22 -15 25 -12z"/>
<path d="M1477 1443 c-12 -12 -8 -45 6 -40 6 2 11 10 9 17 -2 8 3 10 13 7 8
-4 15 -2 15 2 0 5 -7 12 -16 15 -19 7 -19 7 -27 -1z"/>
<path d="M1811 1358 c0 -49 3 -88 7 -88 4 0 6 33 4 73 -5 107 -10 114 -11 15z"/>
<path d="M2105 1380 c3 -14 7 -29 8 -35 2 -5 6 -16 10 -23 5 -7 5 -21 2 -32
-5 -15 -2 -20 10 -20 14 0 16 6 10 28 -9 36 -47 115 -40 82z"/>
<path d="M1500 1330 c0 -15 26 -23 46 -16 20 8 17 11 -18 20 -17 4 -28 2 -28
-4z"/>
<path d="M1716 1142 c-9 -17 -21 -32 -28 -35 -8 -2 6 -23 37 -55 76 -77 81
-85 67 -90 -10 -3 -10 -9 2 -26 38 -59 46 -163 11 -150 -9 4 -15 0 -15 -10 0
-19 -20 -22 -21 -3 0 6 -4 2 -9 -10 -5 -13 -13 -23 -18 -23 -5 0 -17 -16 -28
-35 -10 -19 -23 -35 -28 -35 -5 0 -7 52 -4 128 4 78 2 111 -3 87 -4 -22 -8
-80 -8 -130 l-1 -90 -127 1 -127 2 -63 46 c-41 31 -63 54 -63 67 0 12 9 57 20
101 12 44 19 85 18 90 -2 6 -14 -33 -27 -87 -19 -76 -29 -99 -45 -105 -18 -8
-19 -9 -3 -9 11 -1 43 -22 73 -47 52 -45 53 -46 38 -70 -14 -21 -14 -26 0 -54
8 -17 12 -38 9 -46 -7 -20 11 -17 31 5 24 26 69 33 103 16 15 -8 34 -15 41
-15 8 0 27 -9 42 -20 26 -18 28 -19 26 -3 -2 12 -24 26 -67 41 -35 13 -67 28
-71 35 -5 9 -11 7 -21 -6 -9 -13 -23 -18 -42 -15 -25 2 -31 8 -33 32 -4 35 12
56 30 38 9 -9 9 -12 0 -12 -7 0 -12 -9 -12 -20 0 -23 28 -27 36 -5 5 12 30 15
138 15 l132 0 19 43 c16 33 28 45 59 55 22 7 44 19 50 26 6 7 18 17 27 22 14
8 11 22 -22 124 -21 63 -38 123 -38 133 -1 12 -9 17 -29 17 -51 0 -71 46 -32
73 18 12 18 16 6 26 -12 10 -18 7 -30 -17z"/>
<path d="M1070 1135 c-14 -15 -35 -25 -54 -26 -17 -1 -42 -4 -56 -8 -25 -7
-25 -7 -4 -19 15 -8 40 -9 80 -3 33 5 50 9 39 10 -17 1 -18 3 -5 11 8 5 11 10
5 10 -5 0 1 7 13 16 22 15 30 34 14 34 -5 0 -19 -11 -32 -25z"/>
<path d="M1537 1064 c-15 -30 -31 -54 -35 -54 -5 0 -28 19 -50 42 -23 23 -42
36 -42 29 0 -7 -6 -9 -12 -6 -7 4 -2 -3 12 -15 14 -12 38 -33 53 -47 24 -21
31 -22 45 -11 20 16 51 52 74 88 16 24 16 26 -1 27 -12 1 -26 -15 -44 -53z"/>
<path d="M1742 1103 c5 -26 38 -29 38 -4 0 15 -6 21 -21 21 -14 0 -19 -5 -17
-17z"/>
<path d="M1103 1103 c22 -6 22 0 -12 -107 -40 -125 -63 -242 -59 -307 3 -50 5
-54 26 -51 32 5 54 -16 50 -49 -2 -20 9 -41 41 -79 l44 -52 60 4 c60 4 61 4
151 -57 126 -86 174 -109 192 -94 8 6 14 15 14 20 0 12 -59 41 -70 34 -5 -3
-15 4 -24 16 -8 12 -19 18 -25 14 -7 -3 -11 -3 -10 2 3 20 -2 27 -11 13 -8
-13 -10 -13 -10 2 0 10 -10 22 -21 29 -17 9 -19 13 -8 20 8 5 26 9 42 9 15 0
27 4 27 9 0 16 -60 21 -112 10 -36 -8 -53 -8 -56 -1 -2 6 -21 8 -49 5 -36 -4
-52 0 -74 16 -16 12 -32 21 -37 21 -11 0 -32 45 -32 69 0 21 -23 45 -67 71
-29 17 -32 23 -28 57 2 21 7 37 12 36 4 -1 6 18 5 42 -2 26 2 54 12 71 l15 29
1 -25 c0 -14 9 -33 20 -43 11 -9 20 -14 20 -12 0 3 9 1 19 -5 26 -14 81 31 81
66 0 50 -73 88 -111 58 -26 -21 -37 -24 -35 -12 6 33 30 95 43 110 8 9 12 22
7 29 -5 9 0 10 20 5 15 -4 26 -2 26 4 0 5 -11 10 -24 10 -14 0 -28 5 -31 10
-3 6 -14 9 -23 9 -15 -1 -15 -2 1 -6z m85 -185 c21 -21 14 -57 -14 -70 -23
-11 -29 -10 -45 11 -23 28 -23 35 -3 55 18 19 45 21 62 4z"/>
<path d="M1135 900 c-4 -7 -3 -16 3 -22 14 -14 45 -2 40 15 -6 16 -34 21 -43
7z"/>
<path d="M942 833 c-2 -112 -3 -121 -20 -116 -14 3 -18 11 -14 29 2 13 -1 30
-7 38 -6 7 -9 22 -5 32 5 17 4 17 -8 3 -12 -14 -13 -7 -12 55 l2 71 -8 -60
c-4 -33 -8 -82 -8 -110 0 -45 1 -47 10 -22 15 41 23 32 20 -21 -3 -39 -1 -49
12 -49 19 0 21 13 4 21 -7 3 -4 5 7 3 12 -1 21 -11 23 -25 4 -23 2 -24 -68
-20 l-72 3 6 -29 c3 -16 6 -37 6 -47 0 -16 8 -19 60 -19 l60 0 0 33 c0 18 5
38 10 43 7 7 9 67 7 160 l-3 149 -2 -122z"/>
<path d="M1494 932 c3 -5 -1 -23 -9 -38 -8 -16 -15 -35 -15 -42 0 -20 47 -62
70 -62 29 0 70 44 70 74 0 28 -46 70 -68 61 -7 -3 -23 0 -34 6 -12 6 -18 7
-14 1z m81 -72 c0 -33 -2 -35 -35 -35 -29 0 -36 4 -38 23 -6 40 5 54 40 50 30
-3 33 -6 33 -38z"/>
<path d="M1520 860 c0 -15 5 -20 18 -18 9 2 17 10 17 18 0 8 -8 16 -17 18 -13
2 -18 -3 -18 -18z"/>
<path d="M2075 799 c-99 -21 -187 -36 -197 -33 -9 2 -19 1 -22 -4 -11 -18 56
-22 122 -8 37 8 85 18 107 22 22 4 45 8 50 10 70 17 100 22 111 17 17 -6 17
-11 0 -62 -8 -22 -22 -71 -31 -108 -31 -125 -57 -181 -91 -198 -18 -8 -45 -17
-60 -19 -16 -2 -36 -6 -44 -9 -13 -5 -56 -13 -165 -32 -27 -4 -196 -45 -214
-51 -8 -2 -12 -7 -9 -9 2 -3 118 19 257 49 186 39 257 58 271 72 17 19 130
343 130 375 0 13 -24 33 -33 28 -1 0 -83 -18 -182 -40z"/>
<path d="M1508 762 c-7 -10 -24 -26 -38 -35 -13 -9 -20 -17 -15 -17 6 0 19 7
29 15 10 8 22 12 27 10 4 -3 11 0 15 6 4 8 3 9 -4 5 -16 -9 -15 7 0 22 7 7 9
12 6 12 -4 0 -13 -8 -20 -18z"/>
<path d="M965 650 c3 -5 17 -10 31 -10 13 0 24 5 24 10 0 6 -14 10 -31 10 -17
0 -28 -4 -24 -10z"/>
<path d="M1963 598 c-27 -35 -18 -88 15 -88 24 0 52 31 52 56 0 38 -46 59 -67
32z"/>
<path d="M1155 589 c8 -12 116 -50 129 -45 6 2 4 5 -4 5 -8 1 -41 12 -72 25
-32 13 -55 20 -53 15z"/>
<path d="M1635 529 c4 -6 10 -21 14 -35 6 -23 7 -22 17 11 10 33 10 35 -13 35
-15 0 -22 -4 -18 -11z"/>
<path d="M915 519 l-30 -7 35 0 c19 0 55 3 80 8 l45 8 -50 -1 c-27 -1 -63 -5
-80 -8z"/>
<path d="M1355 510 c-23 -26 -4 -26 26 0 18 15 20 19 8 20 -9 0 -24 -9 -34
-20z"/>
<path d="M860 463 c1 -7 221 -162 244 -172 4 -2 7 1 5 7 -4 12 -229 172 -241
172 -4 0 -8 -3 -8 -7z"/>
<path d="M1483 463 c-28 -5 -30 -19 -3 -26 11 -3 18 -1 14 4 -8 14 43 11 58
-4 7 -7 21 -16 31 -20 24 -9 16 -33 -9 -29 -14 3 -12 -1 9 -18 15 -12 29 -21
30 -19 10 17 36 103 32 107 -3 3 -14 -3 -24 -13 -19 -17 -21 -16 -47 4 -26 20
-44 23 -91 14z"/>
<path d="M2341 410 c-1 -9 4 -21 9 -26 6 -6 19 -39 30 -73 16 -54 17 -63 3
-76 -8 -8 -21 -15 -29 -15 -8 0 -12 -4 -9 -10 4 -6 -43 -10 -134 -10 -77 0
-142 -3 -145 -8 -5 -8 245 -6 281 3 30 7 63 44 62 69 -1 26 -67 167 -68 146z"/>
<path d="M790 402 c0 -10 249 -112 272 -112 26 0 -12 19 -127 64 -66 26 -126
50 -132 53 -7 3 -13 1 -13 -5z"/>
<path d="M1351 358 c24 -29 54 -64 66 -77 13 -13 23 -28 23 -32 0 -5 7 -9 17
-9 13 0 11 4 -7 20 -13 11 -20 20 -17 20 3 0 -16 23 -43 50 -28 28 -50 55 -50
59 0 5 -7 12 -16 15 -9 3 3 -18 27 -46z"/>
<path d="M640 369 c0 -23 48 -94 78 -116 34 -25 128 -59 191 -69 l42 -7 -38
71 c-21 39 -40 69 -42 66 -2 -2 8 -26 22 -53 32 -59 33 -61 6 -61 -36 0 -109
22 -103 31 3 5 -6 9 -19 9 -26 0 -71 33 -60 44 3 3 -1 6 -9 6 -17 0 -48 41
-48 64 0 8 -4 18 -10 21 -5 3 -10 1 -10 -6z"/>
<path d="M1335 166 c-38 -6 -65 -14 -60 -17 6 -4 78 -9 160 -13 112 -4 144 -3
125 5 -14 6 -46 8 -72 5 -36 -4 -50 -1 -60 11 -9 12 -9 15 -1 9 7 -4 20 -3 29
2 23 13 -35 12 -121 -2z"/>
<path d="M1673 135 c0 -6 30 -9 76 -7 119 5 124 8 20 13 -61 2 -96 0 -96 -6z"/>
</g>
</svg>
